<?xml version="1.0" encoding="UTF-8" standalone="no"?>
<!-- Created with Inkscape (http://www.inkscape.org/) -->

<svg
   xmlns:dc="http://purl.org/dc/elements/1.1/"
   xmlns:cc="http://creativecommons.org/ns#"
   xmlns:rdf="http://www.w3.org/1999/02/22-rdf-syntax-ns#"
   xmlns:svg="http://www.w3.org/2000/svg"
   xmlns="http://www.w3.org/2000/svg"
   xmlns:sodipodi="http://sodipodi.sourceforge.net/DTD/sodipodi-0.dtd"
   xmlns:inkscape="http://www.inkscape.org/namespaces/inkscape"
   width="1201.5853"
   height="575.7782"
   id="svg2"
   version="1.1"
   inkscape:version="0.48.4 r9939"
   sodipodi:docname="New document 1">
  <defs
     id="defs4">
    <clipPath
       id="clipPath3001"
       clipPathUnits="userSpaceOnUse">
      <path
         id="path3003"
         d="M 0,4492.84 0,0 l 9470.95,0 0,4492.84 -9470.95,0 z"
         inkscape:connector-curvature="0" />
    </clipPath>
  </defs>
  <sodipodi:namedview
     id="base"
     pagecolor="#ffffff"
     bordercolor="#666666"
     borderopacity="1.0"
     inkscape:pageopacity="0.0"
     inkscape:pageshadow="2"
     inkscape:zoom="0.35"
     inkscape:cx="602.5643"
     inkscape:cy="287.88873"
     inkscape:document-units="px"
     inkscape:current-layer="layer1"
     showgrid="false"
     fit-margin-top="0.2"
     fit-margin-left="0.3"
     fit-margin-right="0.2"
     fit-margin-bottom="0.2"
     units="cm"
     inkscape:window-width="1031"
     inkscape:window-height="661"
     inkscape:window-x="540"
     inkscape:window-y="216"
     inkscape:window-maximized="0" />
  <metadata
     id="metadata7">
    <rdf:RDF>
      <cc:Work
         rdf:about="">
        <dc:format>image/svg+xml</dc:format>
        <dc:type
           rdf:resource="http://purl.org/dc/dcmitype/StillImage" />
        <dc:title></dc:title>
      </cc:Work>
    </rdf:RDF>
  </metadata>
  <g
     inkscape:label="Layer 1"
     inkscape:groupmode="layer"
     id="layer1"
     transform="translate(227.5643,-244.47307)">
    <g
       transform="matrix(1.25,0,0,-1.25,-216.93438,813.16468)"
       inkscape:label="ink_ext_XXXXXX"
       id="g2993">
      <g
         transform="scale(0.1,0.1)"
         id="g2995">
        <g
           id="g2997">
          <g
             clip-path="url(#clipPath3001)"
             id="g2999">
            <path
               id="path3005"
               style="fill:#134377;fill-opacity:1;fill-rule:nonzero;stroke:none"
               d="m 1379.96,3536.08 c -14.39,-73.2 -39.6,-212.39 -50.39,-284.39 l -175.19,0 c 7.19,33.6 17.99,81.6 45.59,152.39 l -2.4,0 c -54,-92.39 -128.39,-166.79 -235.187,-166.79 -117.598,0 -150,84 -129.602,195.59 l 78,415.19 179.989,0 -70.79,-369.59 c -12,-60 -2.4,-82.79 25.2,-82.79 60,0 158.39,157.19 183.59,289.19 l 31.2,163.19 179.99,0 -60,-311.99"
               inkscape:connector-curvature="0" />
            <path
               id="path3007"
               style="fill:#134377;fill-opacity:1;fill-rule:nonzero;stroke:none"
               d="m 1831.16,3717.27 c -111.6,0 -170.4,-145.19 -170.4,-255.59 0,-45.59 10.8,-65.99 34.81,-65.99 67.19,0 163.19,167.99 184.78,281.98 l 6.01,32.4 c -15.6,3.61 -32.4,7.2 -55.2,7.2 z m 151.19,-465.58 -176.39,0 c 10.8,43.2 25.2,91.2 48,154.8 l -2.4,0 c -51.6,-86.4 -129.6,-169.2 -231.59,-169.2 -94.79,0 -145.19,61.2 -145.19,189.6 0,229.19 125.99,434.38 388.77,434.38 74.4,0 153.6,-6 227.99,-20.4 -45.59,-230.39 -82.79,-430.78 -109.19,-589.18"
               inkscape:connector-curvature="0" />
            <path
               id="path3009"
               style="fill:#134377;fill-opacity:1;fill-rule:nonzero;stroke:none"
               d="m 2297.96,3251.69 -179.99,0 166.8,875.97 179.99,0 -166.8,-875.97"
               inkscape:connector-curvature="0" />
            <path
               id="path3011"
               style="fill:#134377;fill-opacity:1;fill-rule:nonzero;stroke:none"
               d="m 2663.96,3910.46 c -61.21,0 -103.2,48 -103.2,102 0,66 56.4,114 117.6,114 61.19,0 104.39,-48 104.39,-99.6 0,-67.2 -56.39,-116.4 -118.79,-116.4 z m -48,-658.77 -179.99,0 113.99,596.38 179.99,0 -113.99,-596.38"
               inkscape:connector-curvature="0" />
            <path
               id="path3013"
               style="fill:#134377;fill-opacity:1;fill-rule:nonzero;stroke:none"
               d="m 3176.35,3707.67 -126,0 -45.59,-242.38 c -10.8,-57.6 -1.21,-74.4 40.8,-74.4 27.59,0 49.2,3.59 69.6,8.39 l -19.2,-143.99 c -43.21,-10.8 -92.41,-16.8 -129.6,-16.8 -131.99,0 -171.59,62.4 -144,211.2 l 48,257.98 -88.8,0 28.8,140.4 87.6,0 33.6,176.39 185.99,36 -40.79,-212.39 127.19,0 -27.6,-140.4"
               inkscape:connector-curvature="0" />
            <path
               id="path3015"
               style="fill:#134377;fill-opacity:1;fill-rule:nonzero;stroke:none"
               d="m 3419.94,3071.7 c -83.99,-82.8 -163.19,-114 -244.79,-114 -29.99,0 -67.2,3.6 -92.4,9.6 l 28.8,154.8 c 24,-8.4 48,-12 72,-12 37.2,0 72,12 98.39,36 30,27.59 46.8,64.79 46.8,129.59 0,178.79 -40.79,375.59 -96,572.38 l 200.4,0 c 29.99,-115.19 55.2,-272.39 55.2,-398.38 0,-10.81 -1.2,-24 -3.6,-34.8 l 2.4,0 c 69.6,133.19 134.39,280.79 201.59,458.38 l 173.99,-46.8 C 3682.73,3408.88 3556.74,3206.1 3419.94,3071.7"
               inkscape:connector-curvature="0" />
            <path
               id="path3017"
               style="fill:#134377;fill-opacity:1;fill-rule:nonzero;stroke:none"
               d="m 4528.69,4004.06 c -38.4,0 -73.2,-32.4 -73.2,-79.19 0,-26.41 14.4,-61.21 32.4,-93.6 46.8,34.8 92.39,72 92.39,121.19 0,31.2 -16.79,51.6 -51.59,51.6 z m -99.6,-392.38 c -53.99,-42 -93.59,-81.6 -93.59,-129.6 0,-49.2 31.19,-88.8 97.2,-88.8 47.98,0 100.79,15.6 149.99,48 -57.6,57.6 -115.2,118.8 -153.6,170.4 z m 416.38,-160.8 c 39.6,-34.79 86.41,-70.79 133.2,-105.59 l -124.79,-123.6 c -52.81,36 -99.6,73.2 -145.2,111.6 -86.39,-58.8 -193.19,-97.2 -313.19,-97.2 -175.19,0 -250.78,93.6 -250.78,212.39 0,127.2 101.99,216 196.78,283.19 -31.2,46.8 -64.79,120 -64.79,177.6 0,116.39 109.19,232.78 268.79,232.78 149.99,0 214.78,-68.39 214.78,-166.79 0,-105.6 -85.19,-187.19 -187.18,-260.38 40.8,-51.61 91.19,-104.4 147.59,-157.2 59.99,72 103.2,164.39 118.79,253.19 l 177.6,0 c -18.01,-133.2 -87.6,-263.99 -171.6,-359.99"
               inkscape:connector-curvature="0" />
            <path
               id="path3019"
               style="fill:#134377;fill-opacity:1;fill-rule:nonzero;stroke:none"
               d="m 1297.13,2199.28 c -40.8,-214.8 -179.99,-313.19 -386.388,-313.19 -247.187,0 -296.387,142.8 -261.582,321.59 l 94.793,503.98 183.598,0 -99.602,-520.78 c -19.199,-97.2 12,-147.6 109.199,-147.6 107.992,0 159.592,51.61 182.392,170.39 l 94.8,497.99 181.19,0 -98.4,-512.38"
               inkscape:connector-curvature="0" />
            <path
               id="path3021"
               style="fill:#134377;fill-opacity:1;fill-rule:nonzero;stroke:none"
               d="m 1767.53,2366.07 c -24,7.2 -49.2,10.8 -73.2,10.8 -51.6,0 -75.6,-19.2 -75.6,-49.2 0,-58.79 139.2,-100.79 139.2,-229.19 0,-100.79 -87.6,-209.99 -283.19,-209.99 -39.6,0 -75.6,3.6 -105.6,9.6 l 31.2,151.19 c 26.4,-9.6 60,-16.8 87.6,-16.8 50.4,0 79.2,18 79.2,49.2 0,69.6 -135.6,88.8 -135.6,228 0,113.99 87.6,201.59 268.79,201.59 36,0 70.79,-2.4 100.79,-7.21 l -33.59,-137.99"
               inkscape:connector-curvature="0" />
            <path
               id="path3023"
               style="fill:#134377;fill-opacity:1;fill-rule:nonzero;stroke:none"
               d="m 2198.32,2367.27 c -111.6,0 -170.4,-145.2 -170.4,-255.59 0,-45.59 10.8,-65.99 34.8,-65.99 67.2,0 163.2,167.98 184.8,281.98 l 6,32.4 c -15.61,3.6 -32.41,7.2 -55.2,7.2 z m 151.19,-465.58 -176.39,0 c 10.8,43.2 25.2,91.19 47.99,154.8 l -2.4,0 c -51.59,-86.4 -129.59,-169.2 -231.58,-169.2 -94.81,0 -145.2,61.2 -145.2,189.6 0,229.19 126,434.38 388.78,434.38 74.41,0 153.6,-6 228,-20.4 -45.6,-230.39 -82.8,-430.79 -109.2,-589.18"
               inkscape:connector-curvature="0" />
            <path
               id="path3025"
               style="fill:#134377;fill-opacity:1;fill-rule:nonzero;stroke:none"
               d="m 2882.3,2354.07 c -67.18,0 -163.18,-167.99 -184.78,-280.79 l -6.01,-33.6 c 15.61,-3.59 32.41,-7.2 55.21,-7.2 111.59,0 170.39,145.2 170.39,255.6 0,45.59 -10.8,65.99 -34.81,65.99 z m -167.98,-465.58 c -82.8,0 -156,8.4 -226.79,25.2 l 164.38,863.97 180,0 -44.4,-230.39 c -11.99,-61.2 -31.19,-121.2 -64.8,-205.2 l 2.41,0 c 58.8,104.4 137.99,170.4 232.79,170.4 94.8,0 145.2,-61.2 145.2,-189.6 0,-229.19 -126,-434.38 -388.79,-434.38"
               inkscape:connector-curvature="0" />
            <path
               id="path3027"
               style="fill:#134377;fill-opacity:1;fill-rule:nonzero;stroke:none"
               d="m 3367.11,2560.47 c -61.19,0 -103.19,47.99 -103.19,101.99 0,66 56.39,114 117.59,114 61.2,0 104.4,-48 104.4,-99.6 0,-67.2 -56.4,-116.39 -118.8,-116.39 z m -48,-658.78 -179.99,0 114,596.38 179.99,0 -114,-596.38"
               inkscape:connector-curvature="0" />
            <path
               id="path3029"
               style="fill:#134377;fill-opacity:1;fill-rule:nonzero;stroke:none"
               d="m 3639.51,1901.69 -179.99,0 166.79,875.97 180,0 -166.8,-875.97"
               inkscape:connector-curvature="0" />
            <path
               id="path3031"
               style="fill:#134377;fill-opacity:1;fill-rule:nonzero;stroke:none"
               d="m 4005.51,2560.47 c -61.19,0 -103.2,47.99 -103.2,101.99 0,66 56.4,114 117.6,114 61.19,0 104.4,-48 104.4,-99.6 0,-67.2 -56.4,-116.39 -118.8,-116.39 z m -48,-658.78 -179.99,0 113.99,596.38 179.99,0 -113.99,-596.38"
               inkscape:connector-curvature="0" />
            <path
               id="path3033"
               style="fill:#134377;fill-opacity:1;fill-rule:nonzero;stroke:none"
               d="m 4517.9,2357.67 -126,0 -45.59,-242.38 c -10.8,-57.6 -1.2,-74.41 40.8,-74.41 27.6,0 49.2,3.6 69.59,8.4 l -19.2,-143.99 c -43.19,-10.8 -92.39,-16.8 -129.59,-16.8 -131.99,0 -171.59,62.4 -143.99,211.19 l 47.99,257.99 -88.79,0 28.79,140.4 87.6,0 33.61,176.39 185.98,36 -40.8,-212.39 127.2,0 -27.6,-140.4"
               inkscape:connector-curvature="0" />
            <path
               id="path3035"
               style="fill:#134377;fill-opacity:1;fill-rule:nonzero;stroke:none"
               d="m 4761.49,1721.7 c -83.99,-82.8 -163.19,-114 -244.79,-114 -30,0 -67.2,3.6 -92.39,9.6 l 28.8,154.79 c 24,-8.4 47.99,-11.99 71.99,-11.99 37.2,0 72,11.99 98.4,36 30,27.59 46.79,64.79 46.79,129.59 0,178.79 -40.79,375.59 -95.99,572.38 l 200.39,0 c 30,-115.2 55.2,-272.39 55.2,-398.39 0,-10.8 -1.2,-23.99 -3.6,-34.79 l 2.4,0 c 69.6,133.19 134.4,280.79 201.59,458.37 l 174,-46.79 c -180,-417.59 -305.99,-620.37 -442.79,-754.77"
               inkscape:connector-curvature="0" />
            <path
               id="path3037"
               style="fill:#134377;fill-opacity:1;fill-rule:nonzero;stroke:none"
               d="m 3872.29,551.691 -422.38,0 153.6,809.969 182.39,0 -122.4,-644.371 240,0 -31.21,-165.598"
               inkscape:connector-curvature="0" />
            <path
               id="path3039"
               style="fill:#134377;fill-opacity:1;fill-rule:nonzero;stroke:none"
               d="m 4291.08,1017.27 c -111.6,0 -170.4,-145.188 -170.4,-255.59 0,-45.59 10.8,-65.989 34.81,-65.989 67.2,0 163.19,167.981 184.78,281.989 l 6.01,32.39 c -15.6,3.6 -32.4,7.2 -55.2,7.2 z m 151.2,-465.579 -176.4,0 c 10.8,43.2 25.2,91.2 48,154.797 l -2.4,0 c -51.6,-86.398 -129.6,-169.199 -231.59,-169.199 -94.79,0 -145.19,61.199 -145.19,189.602 0,229.187 125.99,434.379 388.78,434.379 74.39,0 153.59,-6 227.98,-20.4 -45.59,-230.39 -82.79,-430.792 -109.18,-589.179"
               inkscape:connector-curvature="0" />
            <path
               id="path3041"
               style="fill:#134377;fill-opacity:1;fill-rule:nonzero;stroke:none"
               d="m 4945.08,1004.07 c -67.21,0 -163.2,-167.992 -184.8,-280.789 l -6,-33.59 c 15.6,-3.601 32.4,-7.211 55.2,-7.211 111.59,0 170.39,145.2 170.39,255.598 0,45.594 -10.8,65.992 -34.79,65.992 z m -168,-465.582 c -82.79,0 -156,8.41 -226.79,25.203 l 164.4,863.969 179.99,0 -44.41,-230.39 c -11.99,-61.2 -31.19,-121.2 -64.79,-205.2 l 2.4,0 c 58.8,104.4 138,170.39 232.79,170.39 94.8,0 145.19,-61.19 145.19,-189.589 0,-229.191 -125.99,-434.383 -388.78,-434.383"
               inkscape:connector-curvature="0" />
            <path
               id="path3043"
               style="fill:#134377;fill-opacity:1;fill-rule:nonzero;stroke:none"
               d="m 333.586,3407.69 c -89.992,0 -136.789,55.19 -136.789,158.39 0,169.19 94.797,340.79 253.183,340.79 95.997,0 139.2,-62.41 139.2,-151.2 0,-64.82 -13.211,-127.2 -36.844,-180.84 -71.168,41.72 -157.703,47.69 -229.953,34.85 0,0 52.887,-19.7 113.683,-81.21 16.739,-16.93 28.598,-39.31 38.598,-64.24 -39.492,-35.43 -87.422,-56.54 -141.078,-56.54 z m 337.652,16.1 c 69.914,92.87 112.325,214.79 112.325,353.48 0,190.79 -104.391,299.99 -304.786,299.99 C 202.793,4077.26 0,3826.47 0,3533.68 c 0,-182.39 95.9961,-297.59 305.984,-297.59 83.965,0 163.176,23.6 232.114,65.85 3.636,-5.88 7.453,-11.63 11.652,-17.07 129.922,-168.5 477.07,-51.43 504.47,10.49 -110.607,-36.87 -315.177,-36.56 -382.982,128.43"
               inkscape:connector-curvature="0" />
            <path
               id="path3045"
               style="fill:#134377;fill-opacity:1;fill-rule:nonzero;stroke:none"
               d="M 9470.95,3649.6 7556.47,2806.37 5641.99,3649.61 7556.47,4492.84 9470.95,3649.6"
               inkscape:connector-curvature="0" />
            <path
               id="path3047"
               style="fill:#134377;fill-opacity:1;fill-rule:nonzero;stroke:none"
               d="m 7589.57,2721.87 -33.1,-14.58 -33.11,14.58 -398.09,175.34 -1483.28,-653.31 1914.48,-843.24 1914.48,843.24 -1483.28,653.32 -398.1,-175.35"
               inkscape:connector-curvature="0" />
            <path
               id="path3049"
               style="fill:#134377;fill-opacity:1;fill-rule:nonzero;stroke:none"
               d="m 7589.57,1321.21 -33.1,-14.58 -33.11,14.58 -398.09,175.34 L 5641.99,843.238 7556.47,0 9470.95,843.23 7987.67,1496.55 7589.57,1321.21"
               inkscape:connector-curvature="0" />
            <path
               id="path3051"
               style="fill:#ffffff;fill-opacity:1;fill-rule:nonzero;stroke:none"
               d="m 7535.75,3435.48 c -167.97,0 -251.95,79.52 -251.95,238.54 0,160.52 84.55,240.79 253.66,240.79 83.12,0 145.61,-19.6 187.47,-58.79 41.84,-39.2 62.77,-99.86 62.77,-182 0,-65.27 -13.38,-116.55 -39.68,-154.33 -84.51,43.67 -183.94,49.36 -267.76,34.45 0,0 65.13,-24.25 140,-99.99 2.81,-2.84 5.35,-5.99 7.94,-9.07 -27.28,-6.29 -57.98,-9.6 -92.45,-9.6 z m 378.87,-121.38 c 152.09,68.66 228.36,188.53 228.36,359.92 0,138.77 -51.24,243.97 -153.73,315.62 -102.49,71.63 -253.09,107.45 -451.79,107.45 -198.15,0 -349.18,-36.11 -453.08,-108.3 -103.92,-72.21 -155.87,-176.75 -155.87,-313.64 0,-138.4 52.24,-243.8 156.72,-316.17 104.48,-72.4 254.65,-108.58 450.52,-108.58 61.42,0.57 118.45,4.65 170.84,11.49 13.58,-38.74 29.56,-76.47 53.67,-107.74 160,-207.5 587.5,-63.34 621.25,12.91 -133.69,-44.56 -378.91,-45.07 -466.89,147.04"
               inkscape:connector-curvature="0" />
            <path
               id="path3053"
               style="fill:#ffffff;fill-opacity:1;fill-rule:nonzero;stroke:none"
               d="m 8169.6,2542.33 0,-434.97 c 0,-94.57 -52.9,-167.81 -158.69,-219.71 -105.8,-51.9 -258.3,-77.84 -457.52,-77.84 -194.67,0 -344.24,25.2 -448.73,75.62 -104.49,50.41 -156.74,122.9 -156.74,217.48 l 0,439.42 387.7,0 0,-424.1 c 0,-51.08 18.87,-88.15 56.64,-111.21 37.75,-23.07 93.41,-34.6 166.99,-34.6 78.77,0 135.9,11.45 171.38,34.35 35.48,22.9 53.23,60.38 53.23,112.45 l 0,423.11 385.74,0"
               inkscape:connector-curvature="0" />
            <path
               id="path3055"
               style="fill:#ffffff;fill-opacity:1;fill-rule:nonzero;stroke:none"
               d="m 7125.32,413.332 0,722.638 385.74,0 0,-564.958 549.81,0 0,-157.68 -935.55,0"
               inkscape:connector-curvature="0" />
          </g>
        </g>
      </g>
    </g>
  </g>
</svg>
